<?xml version="1.0" encoding="UTF-8" standalone="no"?>
<!-- Created with Inkscape (http://www.inkscape.org/) -->

<svg
   xmlns:dc="http://purl.org/dc/elements/1.1/"
   xmlns:cc="http://creativecommons.org/ns#"
   xmlns:rdf="http://www.w3.org/1999/02/22-rdf-syntax-ns#"
   xmlns:svg="http://www.w3.org/2000/svg"
   xmlns="http://www.w3.org/2000/svg"
   xmlns:sodipodi="http://sodipodi.sourceforge.net/DTD/sodipodi-0.dtd"
   xmlns:inkscape="http://www.inkscape.org/namespaces/inkscape"
   width="1052.3622"
   height="1488.189"
   id="svg2"
   version="1.1"
   inkscape:version="0.47 r22583"
   sodipodi:docname="130215_christoph_01.svg">
  <defs
     id="defs4" />
  <metadata
     id="metadata7">
    <rdf:RDF>
      <cc:Work
         rdf:about="">
        <dc:format>image/svg+xml</dc:format>
        <dc:type
           rdf:resource="http://purl.org/dc/dcmitype/StillImage" />
        <dc:title />
      </cc:Work>
    </rdf:RDF>
  </metadata>
  <g
     inkscape:label="B______01"
     inkscape:groupmode="layer"
     id="B______01"
     style="display:inline"
     typus="B______01">
    <path
       id="path2853-5-8"
       d="m 106.96088,397.32855 c 40.02262,-1.55126 51.81227,-31.02535 51.81227,-64.53265 0,-45.29693 -23.26899,-55.84558 -23.26899,-55.84558 16.13315,-13.96138 20.78696,-26.06129 20.78696,-47.15848 0,-45.29691 -21.09724,-60.49937 -61.11986,-60.49937 -12.72037,0 -29.47405,0 -29.47405,0 l 0,228.03608 41.26367,0 m 17.06392,-68.25569 c 0,37.54059 -18.6152,35.05859 -24.82025,35.05859 l 0,-70.11721 c 6.20505,0 24.82025,-2.48199 24.82025,35.05862 m 0,-96.1785 c 0,31.33554 -18.6152,30.40482 -24.82025,30.40482 l 0,-60.80962 c 6.20505,0 24.82025,-0.93072 24.82025,30.4048"
       style="color:#000000;fill:none;stroke:#ff2ad4;stroke-width:0.5"
       sodipodi:insensitive="true" />
    <path
       id="path2853-5"
       d="m 106.96088,397.32854 c 40.02262,-1.55126 51.81227,-31.02535 51.81227,-64.53265 0,-45.29693 -23.26899,-55.84558 -23.26899,-55.84558 16.13315,-13.96138 20.78696,-26.06129 20.78696,-47.15848 0,-45.29691 -21.09724,-60.49937 -61.11986,-60.49937 -12.72037,0 -29.47405,0 -29.47405,0 l 0,228.03608 41.26367,0 m 17.06392,-68.25569 c 0,37.54059 -18.6152,35.05859 -24.82025,35.05859 l 0,-70.11721 c 6.20505,0 24.82025,-2.48199 24.82025,35.05862 m 0,-96.1785 c 0,31.33554 -18.6152,30.40482 -24.82025,30.40482 l 0,-60.80962 c 6.20505,0 24.82025,-0.93072 24.82025,30.4048"
       style="fill:#000000;stroke:none;display:inline" />
  </g>
  <g
     id="_A_____01"
     inkscape:groupmode="layer"
     inkscape:label="_A_____01"
     style="display:inline"
     typus="_A_____01">
    <path
       id="path2855"
       d="m 194.84124,397.32855 6.20507,-46.53797 32.26632,0 6.20507,46.53797 32.57658,0 -34.4381,-228.03608 -40.95342,0 -34.4381,228.03608 32.57658,0 m 33.81759,-81.90682 -22.95873,0 9.61785,-71.97875 0.93076,-5.89482 1.86152,0 0.93075,5.89482 9.61785,71.97875"
       style="color:#000000;fill:none;stroke:#ff2ad4;stroke-width:0.5"
       sodipodi:insensitive="true" />
    <path
       id="path2855-9"
       d="m 194.84124,397.32854 6.20507,-46.53797 32.26632,0 6.20507,46.53797 32.57658,0 -34.4381,-228.03608 -40.95342,0 -34.4381,228.03608 32.57658,0 m 33.81759,-81.90682 -22.95873,0 9.61785,-71.97875 0.93076,-5.89482 1.86152,0 0.93075,5.89482 9.61785,71.97875"
       style="fill:#000000;stroke:none;display:inline" />
  </g>
  <g
     inkscape:label="__D____01"
     inkscape:groupmode="layer"
     id="__D____01"
     style="display:inline"
     typus="__D____01">
    <path
       id="path2857"
       d="m 376.97013,283.46564 c 0,-89.35282 -4.65386,-113.86292 -66.70444,-114.17317 l -26.37151,0 0,228.03609 26.37151,0 c 62.05058,-0.31026 66.70444,-24.82035 66.70444,-113.86292 m -59.56861,-80.66583 c 23.57921,0 25.13051,5.89489 24.82025,80.35558 0.31026,74.77094 -1.24104,80.66583 -24.82025,80.66583 l 0,-161.02141"
       style="fill:none;stroke:#ff2ad4;stroke-width:0.5;display:inline"
       sodipodi:insensitive="true" />
    <path
       id="path2857-5"
       d="m 376.97013,283.46563 c 0,-89.35282 -4.65386,-113.86292 -66.70444,-114.17317 l -26.37151,0 0,228.03609 26.37151,0 c 62.05058,-0.31026 66.70444,-24.82035 66.70444,-113.86292 M 317.40152,202.7998 c 23.57921,0 25.13051,5.89489 24.82025,80.35558 0.31026,74.77094 -1.24104,80.66583 -24.82025,80.66583 l 0,-161.02141"
       style="fill:#000000;stroke:none;display:inline" />
  </g>
  <g
     id="___N___01"
     inkscape:groupmode="layer"
     inkscape:label="___N___01"
     style="display:inline"
     typus="___N___01">
    <path
       id="path2859"
       d="m 460.1385,397.32855 c 0,0 29.78431,0 29.78431,0 0,0 0,-228.03608 0,-228.03608 l -30.71506,0 0,118.82697 0,10.5486 -1.86152,0 -2.79228,-10.5486 c 0,0 -32.57658,-118.82697 -32.57658,-118.82697 0,0 -29.78431,0 -29.78431,0 0,0 0,228.03608 0,228.03608 l 30.71506,0 0,-118.82696 0,-10.54861 1.86152,0 2.79228,10.54861 32.57658,118.82696"
       style="color:#000000;fill:none;stroke:#ff2ad4;stroke-width:0.5;display:inline"
       sodipodi:insensitive="true" />
    <path
       id="path2859-5"
       d="m 460.1385,397.32854 c 0,0 29.78431,0 29.78431,0 0,0 0,-228.03608 0,-228.03608 l -30.71506,0 0,118.82697 0,10.5486 -1.86152,0 -2.79228,-10.5486 c 0,0 -32.57658,-118.82697 -32.57658,-118.82697 0,0 -29.78431,0 -29.78431,0 0,0 0,228.03608 0,228.03608 l 30.71506,0 0,-118.82696 0,-10.54861 1.86152,0 2.79228,10.54861 32.57658,118.82696"
       style="fill:#000000;stroke:none;display:inline" />
  </g>
  <g
     inkscape:label="____E__01"
     inkscape:groupmode="layer"
     id="____E__01"
     style="display:inline"
     typus="____E__01">
    <path
       id="path2861"
       d="m 506.055,397.32855 76.63253,0 0,-34.43809 -43.12519,0 0,-62.67114 31.02531,0 0,-36.60988 -31.02531,0 0,-59.87886 43.12519,0 0,-34.43811 -76.63253,0 0,228.03609"
       style="color:#000000;fill:none;stroke:#ff2ad4;stroke-width:0.5;display:inline"
       sodipodi:insensitive="true" />
    <path
       id="path2861-0"
       d="m 506.055,397.32854 76.63253,0 0,-34.43809 -43.12519,0 0,-62.67114 31.02531,0 0,-36.60988 -31.02531,0 0,-59.87886 43.12519,0 0,-34.43811 -76.63253,0 0,228.03609"
       style="fill:#000000;stroke:none;display:inline" />
  </g>
  <g
     id="_____S_01"
     inkscape:groupmode="layer"
     inkscape:label="_____S_01"
     style="display:inline"
     typus="_____S_01">
    <path
       id="path2863"
       d="m 595.60241,220.17398 c 0,24.50997 14.89217,47.77903 30.71506,71.048 12.72036,19.23568 26.99202,37.54064 26.99202,52.74304 0,14.27162 -3.72304,25.1305 -13.65114,25.1305 -13.96137,0 -15.82291,-19.85623 -15.82291,-38.78164 l -32.88682,3.10252 c 0,33.81757 5.58459,66.39416 48.70973,66.39416 36.60984,0 46.53798,-26.99203 46.53798,-57.39681 0,-24.50997 -15.82293,-47.1585 -31.33557,-70.42747 -13.03062,-18.92544 -26.37152,-36.29965 -26.37152,-51.8123 0,-13.03062 2.79229,-22.33822 11.47937,-22.64848 11.1691,0 13.34088,17.68444 13.34088,32.88684 l 32.88684,-3.10254 c 0,-25.44073 -6.51536,-61.4301 -46.84823,-60.49933 -31.64578,0.6205 -43.74569,28.54328 -43.74569,53.36351"
       style="color:#000000;fill:none;stroke:#ff2ad4;stroke-width:0.5;display:inline"
       sodipodi:insensitive="true" />
    <path
       id="path2863-3"
       d="m 595.60241,220.17396 c 0,24.50997 14.89217,47.77904 30.71506,71.04801 12.72036,19.23568 26.99202,37.54064 26.99202,52.74304 0,14.27162 -3.72304,25.1305 -13.65114,25.1305 -13.96137,0 -15.82291,-19.85623 -15.82291,-38.78164 l -32.88682,3.10252 c 0,33.81757 5.58459,66.39415 48.70973,66.39415 36.60984,0 46.53798,-26.99202 46.53798,-57.3968 0,-24.50997 -15.82293,-47.1585 -31.33557,-70.42747 -13.03062,-18.92545 -26.37152,-36.29966 -26.37152,-51.81231 0,-13.03062 2.79229,-22.33822 11.47937,-22.64848 11.1691,0 13.34088,17.68444 13.34088,32.88684 l 32.88684,-3.10254 c 0,-25.44073 -6.51536,-61.43009 -46.84823,-60.49932 -31.64578,0.6205 -43.74569,28.54327 -43.74569,53.3635"
       style="fill:#000000;stroke:none;display:inline" />
  </g>
  <g
     inkscape:label="______S01"
     inkscape:groupmode="layer"
     id="______S01"
     style="display:inline"
     typus="______S01">
    <path
       id="path2865"
       d="m 702.25191,220.17398 c 0,24.50997 14.89218,47.77903 30.71507,71.048 12.72037,19.23568 26.99202,37.54064 26.99202,52.74304 0,14.27162 -3.72305,25.1305 -13.65114,25.1305 -13.96137,0 -15.8229,-19.85623 -15.8229,-38.78164 l -32.88684,3.10252 c 0,33.81757 5.5846,66.39416 48.70974,66.39416 36.60984,0 46.53798,-26.99203 46.53798,-57.39681 0,-24.50997 -15.82293,-47.1585 -31.33558,-70.42747 -13.03061,-18.92544 -26.37151,-36.29965 -26.37151,-51.8123 0,-13.03062 2.79228,-22.33822 11.47937,-22.64848 11.1691,0 13.34088,17.68444 13.34088,32.88684 l 32.88684,-3.10254 c 0,-25.44073 -6.51536,-61.4301 -46.84822,-60.49933 -31.6458,0.6205 -43.74571,28.54328 -43.74571,53.36351"
       style="color:#000000;fill:none;stroke:#ff2ad4;stroke-width:0.5;display:inline"
       sodipodi:insensitive="true" />
    <path
       id="path2865-2"
       d="m 702.25191,220.17397 c 0,24.50997 14.89218,47.77903 30.71507,71.048 12.72037,19.23568 26.99202,37.54064 26.99202,52.74304 0,14.27162 -3.72305,25.1305 -13.65114,25.1305 -13.96137,0 -15.8229,-19.85623 -15.8229,-38.78164 l -32.88684,3.10252 c 0,33.81757 5.5846,66.39416 48.70974,66.39416 36.60984,0 46.53798,-26.99203 46.53798,-57.39681 0,-24.50997 -15.82293,-47.1585 -31.33558,-70.42747 -13.03061,-18.92544 -26.37151,-36.29965 -26.37151,-51.8123 0,-13.03062 2.79228,-22.33822 11.47937,-22.64848 11.1691,0 13.34088,17.68444 13.34088,32.88684 l 32.88684,-3.10254 c 0,-25.44073 -6.51536,-61.4301 -46.84822,-60.49933 -31.6458,0.6205 -43.74571,28.54328 -43.74571,53.36351"
       style="fill:#000000;stroke:none;display:inline" />
  </g>
  <g
     style="display:inline"
     inkscape:label="AND01"
     inkscape:groupmode="layer"
     id="AND01"
     typus="AND01">
    <path
       d="m 831.54132,299.79845 68.59827,0 0,64.05032 31.83566,0 0,-64.05032 68.59825,0 0,-31.83567 -68.59825,0 0,-64.05032 -31.83566,0 0,64.05032 -68.59827,0 0,31.83567"
       id="path3488-3"
       style="color:#000000;fill:none;stroke:#ff2ad4;stroke-width:0.5;display:inline"
       sodipodi:insensitive="true" />
    <path
       d="m 831.54132,299.79845 68.59827,0 0,64.05032 31.83566,0 0,-64.05032 68.59825,0 0,-31.83567 -68.59825,0 0,-64.05032 -31.83566,0 0,64.05032 -68.59827,0 0,31.83567"
       id="path3488-3-8"
       style="fill:#000000;stroke:none;display:inline" />
  </g>
  <g
     id="C_______01"
     inkscape:groupmode="layer"
     inkscape:label="C_______01"
     style="display:inline"
     typus="C_______01">
    <path
       d="m 121.54277,598.34501 0,31.33556 c 0,0 1.24101,16.75368 -12.72038,16.75368 -11.7896,0 -11.78962,-16.75368 -11.78962,-16.75368 l 0,-134.33961 c 0,0 2e-5,-16.75367 11.78962,-16.75367 13.96139,0 12.72038,16.75367 12.72038,16.75367 l 0,31.33557 c 0,0 31.33557,0 31.33557,0 l 0,-31.33557 c 0,0 0.31021,-49.33025 -44.67646,-49.33025 -44.986654,0 -44.676446,49.33025 -44.676446,49.33025 l 0,134.33961 c 0,0 -0.310208,49.33026 44.676446,49.33026 44.98667,0 44.67646,-49.33026 44.67646,-49.33026 l 0,-31.33556 -31.33557,0"
       id="path3257"
       style="color:#000000;fill:none;stroke:#ff2ad4;stroke-width:0.5"
       sodipodi:insensitive="true" />
    <path
       d="m 121.54277,598.34496 0,31.33556 c 0,0 1.24101,16.75368 -12.72038,16.75368 -11.7896,0 -11.78962,-16.75368 -11.78962,-16.75368 l 0,-134.33961 c 0,0 2e-5,-16.75367 11.78962,-16.75367 13.96139,0 12.72038,16.75367 12.72038,16.75367 l 0,31.33557 c 0,0 31.33557,0 31.33557,0 l 0,-31.33557 c 0,0 0.31021,-49.33025 -44.67646,-49.33025 -44.98665,0 -44.67645,49.33025 -44.67645,49.33025 l 0,134.33961 c 0,0 -0.3102,49.33026 44.67645,49.33026 44.98667,0 44.67646,-49.33026 44.67646,-49.33026 l 0,-31.33556 -31.33557,0"
       id="path3257-8"
       style="fill:#000000;stroke:none;display:inline" />
  </g>
  <g
     style="display:inline"
     inkscape:label="_O______01"
     inkscape:groupmode="layer"
     id="_O______01"
     typus="_O______01">
    <path
       id="path4467"
       style="color:#000000;fill:none;stroke:#ff2ad4;stroke-width:0.5"
       d="m 258.42531,629.68057 0,-134.33961 c 0,0 0.31021,-49.33025 -44.67646,-49.33025 -44.98665,0 -44.67645,49.33025 -44.67645,49.33025 l 0,134.33961 c 0,0 -0.3102,49.33026 44.67645,49.33026 44.98667,0 44.67646,-49.33026 44.67646,-49.33026 m -33.50735,-134.33961 0,134.33961 c 0,0 0.6205,16.75368 -11.16911,16.75368 -11.78961,0 -11.16911,-16.75368 -11.16911,-16.75368 l 0,-134.33961 c 0,0 -0.6205,-16.75367 11.16911,-16.75367 11.78961,0 11.16911,16.75367 11.16911,16.75367"
       sodipodi:insensitive="true" />
    <path
       id="path4467-6"
       style="fill:#000000;stroke:none;display:inline"
       d="m 258.42531,629.68052 0,-134.3396 c 0,0 0.31021,-49.33026 -44.67646,-49.33026 -44.98665,0 -44.67645,49.33026 -44.67645,49.33026 l 0,134.3396 c 0,0 -0.3102,49.33026 44.67645,49.33026 44.98667,0 44.67646,-49.33026 44.67646,-49.33026 m -33.50735,-134.33961 0,134.33961 c 0,0 0.6205,16.75368 -11.16911,16.75368 -11.78961,0 -11.16911,-16.75368 -11.16911,-16.75368 l 0,-134.33961 c 0,0 -0.6205,-16.75367 11.16911,-16.75367 11.78961,0 11.16911,16.75367 11.16911,16.75367" />
  </g>
  <g
     id="__N_____01"
     inkscape:groupmode="layer"
     inkscape:label="__N_____01"
     style="display:inline"
     typus="__N_____01">
    <path
       d="m 343.74337,676.5288 c 0,0 29.78431,0 29.78431,0 0,0 0,-228.03607 0,-228.03607 l -30.71506,0 0,118.82696 0,10.54861 -1.86152,0 -2.79229,-10.54861 c 0,0 -32.57658,-118.82696 -32.57658,-118.82696 0,0 -29.78429,0 -29.78429,0 0,0 0,228.03607 0,228.03607 l 30.71506,0 0,-118.82695 0,-10.54861 1.86152,0 2.79227,10.54861 32.57658,118.82695"
       style="color:#000000;fill:none;stroke:#ff2ad4;stroke-width:0.5"
       id="path4487"
       sodipodi:insensitive="true" />
    <path
       d="m 343.74337,676.52883 c 0,0 29.78431,0 29.78431,0 0,0 0,-228.03607 0,-228.03607 l -30.71506,0 0,118.82696 0,10.54861 -1.86152,0 -2.79229,-10.54861 c 0,0 -32.57658,-118.82696 -32.57658,-118.82696 0,0 -29.78429,0 -29.78429,0 0,0 0,228.03607 0,228.03607 l 30.71506,0 0,-118.82695 0,-10.54861 1.86152,0 2.79227,10.54861 32.57658,118.82695"
       style="fill:#000000;stroke:none;display:inline"
       id="path4487-0" />
  </g>
  <g
     style="display:inline"
     inkscape:label="___F____01"
     inkscape:groupmode="layer"
     id="___F____01"
     typus="___F____01">
    <path
       id="path4507"
       style="color:#000000;fill:none;stroke:#ff2ad4;stroke-width:0.5"
       d="m 471.10343,448.49273 c -76.32219,0 -79.73505,0 -79.73505,0 l 0,228.03607 33.50733,0 0,-99.281 31.02532,0 0,-34.43811 -31.02532,0 0,-59.87886 46.22772,0 0,-34.4381"
       sodipodi:insensitive="true" />
    <path
       id="path4507-9"
       style="fill:#000000;stroke:none;display:inline"
       d="m 471.10343,448.49276 c -76.32219,0 -79.73505,0 -79.73505,0 l 0,228.03607 33.50733,0 0,-99.281 31.02532,0 0,-34.43811 -31.02532,0 0,-59.87885 46.22772,0 0,-34.43811" />
  </g>
  <g
     id="____L___01"
     inkscape:groupmode="layer"
     inkscape:label="____L___01"
     style="display:inline"
     typus="____L___01">
    <path
       d="m 484.68672,676.5288 77.87355,0 0,-31.02531 -44.3662,0 0,-197.01076 -33.50735,0 0,228.03607"
       style="color:#000000;fill:none;stroke:#ff2ad4;stroke-width:0.5"
       id="path4527"
       sodipodi:insensitive="true" />
    <path
       d="m 484.68672,676.52882 77.87355,0 0,-31.02531 -44.3662,0 0,-197.01075 -33.50735,0 0,228.03606"
       style="fill:#000000;stroke:none;display:inline"
       id="path4527-7" />
  </g>
  <g
     style="display:inline"
     inkscape:label="_____I__01"
     inkscape:groupmode="layer"
     id="_____I__01"
     typus="_____I__01">
    <path
       id="path4547"
       style="color:#000000;fill:none;stroke:#ff2ad4;stroke-width:0.5"
       d="m 576.18717,676.5288 33.50734,0 0,-228.03607 -33.50734,0 0,228.03607"
       sodipodi:insensitive="true" />
    <path
       id="path4547-9"
       style="fill:#000000;stroke:none;display:inline"
       d="m 576.18717,676.52883 33.50734,0 0,-228.03607 -33.50734,0 0,228.03607" />
  </g>
  <g
     id="______C_01"
     inkscape:groupmode="layer"
     inkscape:label="______C_01"
     style="display:inline"
     typus="______C_01">
    <path
       d="m 688.49669,598.34501 0,31.33556 c 0,0 1.241,16.75368 -12.72039,16.75368 -11.78961,0 -11.78962,-16.75368 -11.78962,-16.75368 l 0,-134.33961 c 0,0 10e-6,-16.75367 11.78962,-16.75367 13.96139,0 12.72039,16.75367 12.72039,16.75367 l 0,31.33557 c 0,0 31.33556,0 31.33556,0 l 0,-31.33557 c 0,0 0.31021,-49.33025 -44.67645,-49.33025 -44.98666,0 -44.67645,49.33025 -44.67645,49.33025 l 0,134.33961 c 0,0 -0.31021,49.33026 44.67645,49.33026 44.98666,0 44.67645,-49.33026 44.67645,-49.33026 l 0,-31.33556 -31.33556,0"
       style="color:#000000;fill:none;stroke:#ff2ad4;stroke-width:0.5"
       id="path4567"
       sodipodi:insensitive="true" />
    <path
       d="m 688.49669,598.34496 0,31.33556 c 0,0 1.241,16.75368 -12.72039,16.75368 -11.78961,0 -11.78962,-16.75368 -11.78962,-16.75368 l 0,-134.33961 c 0,0 10e-6,-16.75367 11.78962,-16.75367 13.96139,0 12.72039,16.75367 12.72039,16.75367 l 0,31.33557 c 0,0 31.33556,0 31.33556,0 l 0,-31.33557 c 0,0 0.31021,-49.33025 -44.67645,-49.33025 -44.98666,0 -44.67645,49.33025 -44.67645,49.33025 l 0,134.33961 c 0,0 -0.31021,49.33026 44.67645,49.33026 44.98666,0 44.67645,-49.33026 44.67645,-49.33026 l 0,-31.33556 -31.33556,0"
       style="fill:#000000;stroke:none;display:inline"
       id="path4567-9" />
  </g>
  <g
     style="display:inline"
     inkscape:label="_______T01"
     inkscape:groupmode="layer"
     id="_______T01"
     typus="_______T01">
    <path
       id="path4587"
       style="color:#000000;fill:none;stroke:#ff2ad4;stroke-width:0.5"
       d="m 759.76281,482.93084 0,193.59796 33.50734,0 0,-193.59796 31.64582,0 0,-34.43811 -96.79898,0 0,34.43811 31.64582,0"
       sodipodi:insensitive="true" />
    <path
       id="path4587-6"
       style="fill:#000000;stroke:none;display:inline"
       d="m 759.76281,482.93087 0,193.59796 33.50734,0 0,-193.59796 31.64582,0 0,-34.43811 -96.79898,0 0,34.43811 31.64582,0" />
  </g>
</svg>
