<?xml version="1.0" encoding="UTF-8" standalone="no"?>
<!-- Created with Inkscape (http://www.inkscape.org/) -->

<svg
   xmlns:dc="http://purl.org/dc/elements/1.1/"
   xmlns:cc="http://creativecommons.org/ns#"
   xmlns:rdf="http://www.w3.org/1999/02/22-rdf-syntax-ns#"
   xmlns:svg="http://www.w3.org/2000/svg"
   xmlns="http://www.w3.org/2000/svg"
   xmlns:sodipodi="http://sodipodi.sourceforge.net/DTD/sodipodi-0.dtd"
   xmlns:inkscape="http://www.inkscape.org/namespaces/inkscape"
   width="1052.3622"
   height="1488.189"
   id="svg2"
   version="1.1"
   inkscape:version="0.47 r22583"
   sodipodi:docname="130218_christoph_03.svg">
  <sodipodi:namedview
     pagecolor="#ffffff"
     bordercolor="#666666"
     borderopacity="1"
     objecttolerance="10"
     gridtolerance="10"
     guidetolerance="10"
     inkscape:pageopacity="0"
     inkscape:pageshadow="2"
     inkscape:window-width="640"
     inkscape:window-height="480"
     id="namedview53"
     showgrid="false"
     inkscape:zoom="1.4280884"
     inkscape:cx="140.59628"
     inkscape:cy="1199.6955"
     inkscape:current-layer="g3788" />
  <defs
     id="defs4">
    <inkscape:perspective
       sodipodi:type="inkscape:persp3d"
       inkscape:vp_x="0 : 744.09448 : 1"
       inkscape:vp_y="0 : 1000 : 0"
       inkscape:vp_z="1052.3622 : 744.09448 : 1"
       inkscape:persp3d-origin="526.18109 : 496.06299 : 1"
       id="perspective55" />
    <inkscape:perspective
       id="perspective3658"
       inkscape:persp3d-origin="0.5 : 0.33333333 : 1"
       inkscape:vp_z="1 : 0.5 : 1"
       inkscape:vp_y="0 : 1000 : 0"
       inkscape:vp_x="0 : 0.5 : 1"
       sodipodi:type="inkscape:persp3d" />
    <inkscape:perspective
       id="perspective3681"
       inkscape:persp3d-origin="0.5 : 0.33333333 : 1"
       inkscape:vp_z="1 : 0.5 : 1"
       inkscape:vp_y="0 : 1000 : 0"
       inkscape:vp_x="0 : 0.5 : 1"
       sodipodi:type="inkscape:persp3d" />
    <inkscape:perspective
       id="perspective3740"
       inkscape:persp3d-origin="0.5 : 0.33333333 : 1"
       inkscape:vp_z="1 : 0.5 : 1"
       inkscape:vp_y="0 : 1000 : 0"
       inkscape:vp_x="0 : 0.5 : 1"
       sodipodi:type="inkscape:persp3d" />
    <inkscape:perspective
       id="perspective3774"
       inkscape:persp3d-origin="0.5 : 0.33333333 : 1"
       inkscape:vp_z="1 : 0.5 : 1"
       inkscape:vp_y="0 : 1000 : 0"
       inkscape:vp_x="0 : 0.5 : 1"
       sodipodi:type="inkscape:persp3d" />
    <inkscape:perspective
       id="perspective3818"
       inkscape:persp3d-origin="0.5 : 0.33333333 : 1"
       inkscape:vp_z="1 : 0.5 : 1"
       inkscape:vp_y="0 : 1000 : 0"
       inkscape:vp_x="0 : 0.5 : 1"
       sodipodi:type="inkscape:persp3d" />
    <inkscape:perspective
       id="perspective3849"
       inkscape:persp3d-origin="0.5 : 0.33333333 : 1"
       inkscape:vp_z="1 : 0.5 : 1"
       inkscape:vp_y="0 : 1000 : 0"
       inkscape:vp_x="0 : 0.5 : 1"
       sodipodi:type="inkscape:persp3d" />
    <inkscape:perspective
       id="perspective3897"
       inkscape:persp3d-origin="0.5 : 0.33333333 : 1"
       inkscape:vp_z="1 : 0.5 : 1"
       inkscape:vp_y="0 : 1000 : 0"
       inkscape:vp_x="0 : 0.5 : 1"
       sodipodi:type="inkscape:persp3d" />
  </defs>
  <metadata
     id="metadata7">
    <rdf:RDF>
      <cc:Work
         rdf:about="">
        <dc:format>image/svg+xml</dc:format>
        <dc:type
           rdf:resource="http://purl.org/dc/dcmitype/StillImage" />
        <dc:title />
      </cc:Work>
    </rdf:RDF>
  </metadata>
  <g
     inkscape:label="B______01"
     inkscape:groupmode="layer"
     id="B______01"
     style="display:none"
     typus="B______01">
    <path
       d="m 60.6875,164.28125 0,5 0,228.0625 0,5 5,0 41.28125,0 0,-5.03125 0.1875,5 c 21.21696,-0.82236 36.08454,-9.47602 44.875,-22.46875 8.79046,-12.99273 11.75,-29.72243 11.75,-47.0625 0,-23.50463 -6.13174,-38.57545 -12.5625,-47.75 -2.73022,-3.89511 -5.50159,-6.55785 -7.90625,-8.5625 13.29522,-13.21801 17.96875,-26.9794 17.96875,-46.6875 0,-23.42471 -5.55314,-40.22263 -17.15625,-50.90625 -11.60311,-10.68362 -28.32436,-14.59375 -48.96875,-14.59375 l -29.46875,0 -5,0 z m 10,10 24.46875,0 c 19.37823,0 33.23633,3.69567 42.1875,11.9375 8.95117,8.24183 13.9375,21.6903 13.9375,43.5625 0,20.36189 -3.6505,30.0377 -19.0625,43.375 l -5.90625,5.125 7.125,3.21875 c 0,0 4.39001,1.82599 9.59375,9.25 5.20374,7.42401 10.75,20.23895 10.75,42.03125 0,16.16723 -2.95248,30.95979 -10.0625,41.46875 -7.08528,10.47238 -18.06352,17.32496 -36.75,18.09375 l -0.1875,0 -36.09375,0 0,-218.0625 z"
       id="path3646"
       style="color:#ff2ad4;fill:#ff2ad4;stroke:none"
       sodipodi:insensitive="true" />
    <path
       id="path2853-5-8"
       d="m 106.96088,397.32855 c 40.02262,-1.55126 51.81227,-31.02535 51.81227,-64.53265 0,-45.29693 -23.26899,-55.84558 -23.26899,-55.84558 16.13315,-13.96138 20.78696,-26.06129 20.78696,-47.15848 0,-45.29691 -21.09724,-60.49937 -61.11986,-60.49937 -12.72037,0 -29.47405,0 -29.47405,0 l 0,228.03608 41.26367,0 m 17.06392,-68.25569 c 0,37.54059 -18.6152,35.05859 -24.82025,35.05859 l 0,-70.11721 c 6.20505,0 24.82025,-2.48199 24.82025,35.05862 m 0,-96.1785 c 0,31.33554 -18.6152,30.40482 -24.82025,30.40482 l 0,-60.80962 c 6.20505,0 24.82025,-0.93072 24.82025,30.4048"
       style="color:#000000;fill:none;stroke:#ff2ad4;stroke-width:0.5"
       sodipodi:insensitive="true" />
    <path
       style="color:#ff2ad4;fill:#ff2ad4;stroke:none"
       d="m 94.21875,197.50004 0,5 0,60.8125 0,5 5,0 c 2.85254,0 10.55624,0.42055 17.53125,-4.3125 6.97501,-4.73305 12.28125,-14.43588 12.28125,-31.09375 0,-16.65786 -5.30624,-26.3607 -12.28125,-31.09375 -6.97501,-4.73305 -14.67871,-4.3125 -17.53125,-4.3125 l -5,0 z"
       id="path3642"
       sodipodi:insensitive="true" />
    <path
       style="color:#ff2ad4;fill:#ff2ad4;stroke:none"
       d="m 102,288.96879 c -1.22333,-0.002 -2.172283,0.0312 -2.78125,0.0312 l -5,0 0,5 0,70.125 0,5 5,0 c 2.43586,0 10.63142,0.878 17.71875,-4.4375 7.08733,-5.3155 12.09375,-16.02826 12.09375,-35.625 0,-19.59675 -5.00642,-30.27824 -12.09375,-35.59375 -5.3155,-3.98663 -11.26751,-4.49381 -14.9375,-4.5 z"
       id="path3638"
       sodipodi:insensitive="true" />
    <path
       d="m 70.6875,174.28126 0,218.0625 36.09375,0 0.1875,0 c 18.68648,-0.76879 29.66472,-7.62137 36.75,-18.09375 7.11002,-10.50896 10.0625,-25.30152 10.0625,-41.46875 0,-21.7923 -5.54626,-34.60724 -10.75,-42.03125 -5.20374,-7.42401 -9.59375,-9.25 -9.59375,-9.25 l -7.125,-3.21875 5.90625,-5.125 c 15.412,-13.3373 19.0625,-23.01311 19.0625,-43.375 0,-21.8722 -4.98633,-35.32067 -13.9375,-43.5625 -8.95117,-8.24183 -22.80927,-11.9375 -42.1875,-11.9375 l -24.46875,0 z m 23.53125,23.21875 5,0 c 2.85254,0 10.55624,-0.42055 17.53125,4.3125 6.97501,4.73305 12.28125,14.43589 12.28125,31.09375 0,16.65787 -5.30624,26.3607 -12.28125,31.09375 -6.97501,4.73305 -14.67871,4.3125 -17.53125,4.3125 l -5,0 0,-5 0,-60.8125 0,-5 z M 102,288.96876 c 3.66999,0.006 9.622,0.51337 14.9375,4.5 7.08733,5.31551 12.09375,15.997 12.09375,35.59375 0,19.59674 -5.00642,30.3095 -12.09375,35.625 -7.08733,5.3155 -15.28289,4.4375 -17.71875,4.4375 l -5,0 0,-5 0,-70.125 0,-5 5,0 c 0.608967,0 1.55792,-0.0333 2.78125,-0.0312 z"
       id="path3644"
       style="fill:#000000;stroke:none;display:inline" />
  </g>
  <g
     typus="B______01"
     style="display:none"
     id="g3700"
     inkscape:groupmode="layer"
     inkscape:label="B______01">
    <path
       style="color:#000000;fill:none;stroke:#ff2ad4;stroke-width:0.5"
       d="m 106.96088,397.32855 c 40.02262,-1.55126 51.81227,-31.02535 51.81227,-64.53265 0,-45.29693 -23.26899,-55.84558 -23.26899,-55.84558 16.13315,-13.96138 20.78696,-26.06129 20.78696,-47.15848 0,-45.29691 -21.09724,-60.49937 -61.11986,-60.49937 -12.72037,0 -29.47405,0 -29.47405,0 l 0,228.03608 41.26367,0"
       id="path3749"
       sodipodi:insensitive="true" />
    <path
       style="fill:#000000;stroke:none;display:inline"
       d="m 70.6875,174.28126 0,218.0625 36.09375,0 0.1875,0 c 18.68648,-0.76879 29.66472,-7.62137 36.75,-18.09375 7.11002,-10.50896 10.0625,-25.30152 10.0625,-41.46875 0,-21.7923 -5.54626,-34.60724 -10.75,-42.03125 -5.20374,-7.42401 -9.59375,-9.25 -9.59375,-9.25 l -7.125,-3.21875 5.90625,-5.125 c 15.412,-13.3373 19.0625,-23.01311 19.0625,-43.375 0,-21.8722 -4.98633,-35.32067 -13.9375,-43.5625 -8.95117,-8.24183 -22.80927,-11.9375 -42.1875,-11.9375 l -24.46875,0 z"
       id="path3716" />
  </g>
  <g
     inkscape:label="B______01"
     inkscape:groupmode="layer"
     id="g3760"
     style="display:none"
     typus="B______01">
    <path
       id="path3764"
       d="m -9.3125,174.28126 0,218.0625 116.09375,0 c 15.62163,-0.32794 27.26169,-6.21642 36.9375,-18.09375 7.11002,-10.50896 10.0625,-25.30152 10.0625,-41.46875 0,-21.7923 -5.54626,-34.60724 -10.75,-42.03125 -6.16949,-8.80181 -16.71875,-12.46875 -16.71875,-12.46875 l 5.90625,-5.125 c 15.412,-13.3373 19.0625,-23.01311 19.0625,-43.375 0,-21.8722 -4.98633,-35.32067 -13.9375,-43.5625 -8.95117,-8.24183 -22.80927,-11.9375 -42.1875,-11.9375 l -104.46875,0 z"
       style="fill:#000000;stroke:none;display:inline"
       sodipodi:nodetypes="ccccscccsscc" />
  </g>
  <g
     typus="B______01"
     style="display:inline"
     id="g3788"
     inkscape:groupmode="layer"
     inkscape:label="B______01">
    <path
       style="color:#000000;fill:#000000;stroke:none"
       id="path3792"
       d="m 60.6875,164.28125 0,5 0,228.0625 0,5 5,0 41.28125,0 0,-5.03125 0.1875,5 c 21.21696,-0.82236 36.08454,-9.47602 44.875,-22.46875 8.79046,-12.99273 11.75,-29.72243 11.75,-47.0625 0,-23.50463 -6.13174,-38.57545 -12.5625,-47.75 -2.73022,-3.89511 -5.50159,-6.55785 -7.90625,-8.5625 13.29522,-13.21801 17.96875,-26.9794 17.96875,-46.6875 0,-23.42471 -5.55314,-40.22263 -17.15625,-50.90625 -11.60311,-10.68362 -28.32436,-14.59375 -48.96875,-14.59375 l -29.46875,0 -5,0 z m 10,10 24.46875,0 c 19.37823,0 33.23633,3.69567 42.1875,11.9375 8.95117,8.24183 13.9375,21.6903 13.9375,43.5625 0,20.36189 -3.6505,30.0377 -19.0625,43.375 l -5.90625,5.125 7.125,3.21875 c 0,0 4.39001,1.82599 9.59375,9.25 5.20374,7.42401 10.75,20.23895 10.75,42.03125 0,16.16723 -2.95248,30.95979 -10.0625,41.46875 -7.08528,10.47238 -18.06352,17.32496 -36.75,18.09375 l -0.1875,0 -36.09375,0 0,-218.0625 z" />
    <path
       sodipodi:insensitive="true"
       style="color:#000000;fill:none;stroke:#ff2ad4;stroke-width:0.5"
       d="m 106.96088,397.32855 c 40.02262,-1.55126 51.81227,-31.02535 51.81227,-64.53265 0,-45.29693 -23.26899,-55.84558 -23.26899,-55.84558 16.13315,-13.96138 20.78696,-26.06129 20.78696,-47.15848 0,-45.29691 -21.09724,-60.49937 -61.11986,-60.49937 -12.72037,0 -29.47405,0 -29.47405,0 l 0,228.03608 41.26367,0 m 17.06392,-68.25569 c 0,37.54059 -18.6152,35.05859 -24.82025,35.05859 l 0,-70.11721 c 6.20505,0 24.82025,-2.48199 24.82025,35.05862 m 0,-96.1785 c 0,31.33554 -18.6152,30.40482 -24.82025,30.40482 l 0,-60.80962 c 6.20505,0 24.82025,-0.93072 24.82025,30.4048"
       id="path3794" />
    <path
       id="path3796"
       d="m 94.21875,197.50004 0,5 0,60.8125 0,5 5,0 c 2.85254,0 10.55624,0.42055 17.53125,-4.3125 6.97501,-4.73305 12.28125,-14.43588 12.28125,-31.09375 0,-16.65786 -5.30624,-26.3607 -12.28125,-31.09375 -6.97501,-4.73305 -14.67871,-4.3125 -17.53125,-4.3125 l -5,0 z"
       style="color:#000000;fill:#000000;stroke:none" />
    <path
       id="path3798"
       d="m 102,288.96879 c -1.22333,-0.002 -2.172283,0.0312 -2.78125,0.0312 l -5,0 0,5 0,70.125 0,5 5,0 c 2.43586,0 10.63142,0.878 17.71875,-4.4375 7.08733,-5.3155 12.09375,-16.02826 12.09375,-35.625 0,-19.59675 -5.00642,-30.27824 -12.09375,-35.59375 -5.3155,-3.98663 -11.26751,-4.49381 -14.9375,-4.5 z"
       style="color:#000000;fill:#000000;stroke:none" />
  </g>
  <g
     inkscape:label="B______01"
     inkscape:groupmode="layer"
     id="g3800"
     style="display:none"
     typus="B______01">
    <path
       style="color:#000000;fill:#000000;stroke:none;display:inline"
       d="m 106.96088,397.32854 c 40.02262,-1.55126 51.81227,-31.02535 51.81227,-64.53265 0,-45.29693 -23.26899,-55.84558 -23.26899,-55.84558 16.13315,-13.96138 20.78696,-26.06129 20.78696,-47.15848 0,-45.29691 -21.09724,-60.49937 -61.11986,-60.49937 -12.72037,0 -29.47405,0 -29.47405,0 l 0,228.03608 41.26367,0"
       id="path3836" />
    <path
       id="path3804"
       d="m 106.96088,397.32855 c 40.02262,-1.55126 51.81227,-31.02535 51.81227,-64.53265 0,-45.29693 -23.26899,-55.84558 -23.26899,-55.84558 16.13315,-13.96138 20.78696,-26.06129 20.78696,-47.15848 0,-45.29691 -21.09724,-60.49937 -61.11986,-60.49937 -12.72037,0 -29.47405,0 -29.47405,0 l 0,228.03608 41.26367,0 m 17.06392,-68.25569 c 0,37.54059 -18.6152,35.05859 -24.82025,35.05859 l 0,-70.11721 c 6.20505,0 24.82025,-2.48199 24.82025,35.05862 m 0,-96.1785 c 0,31.33554 -18.6152,30.40482 -24.82025,30.40482 l 0,-60.80962 c 6.20505,0 24.82025,-0.93072 24.82025,30.4048"
       style="color:#000000;fill:none;stroke:#ff2ad4;stroke-width:0.5"
       sodipodi:insensitive="true" />
    <path
       style="color:#000000;fill:#ffffff;stroke:none"
       d="m 130.94427,230.56375 c 0,10.82844 -8.77819,19.60663 -19.60663,19.60663 -10.82844,0 -19.606634,-8.77819 -19.606634,-19.60663 0,-10.82844 8.778194,-19.60663 19.606634,-19.60663 10.82844,0 19.60663,8.77819 19.60663,19.60663 z"
       id="path3838" />
    <path
       style="color:#000000;fill:#ffffff;stroke:none"
       d="m 139.34711,330.56379 c 0,15.4692 -12.54027,28.00947 -28.00947,28.00947 -15.469199,0 -28.009476,-12.54027 -28.009476,-28.00947 0,-15.4692 12.540277,-28.00947 28.009476,-28.00947 15.4692,0 28.00947,12.54027 28.00947,28.00947 z"
       id="path3838-7" />
  </g>
</svg>
