<?xml version="1.0" encoding="UTF-8" standalone="no"?>
<!-- Created with Inkscape (http://www.inkscape.org/) -->

<svg
   xmlns:dc="http://purl.org/dc/elements/1.1/"
   xmlns:cc="http://creativecommons.org/ns#"
   xmlns:rdf="http://www.w3.org/1999/02/22-rdf-syntax-ns#"
   xmlns:svg="http://www.w3.org/2000/svg"
   xmlns="http://www.w3.org/2000/svg"
   xmlns:sodipodi="http://sodipodi.sourceforge.net/DTD/sodipodi-0.dtd"
   xmlns:inkscape="http://www.inkscape.org/namespaces/inkscape"
   width="1052.3622"
   height="1488.189"
   id="svg2"
   version="1.1"
   inkscape:version="0.47 r22583"
   sodipodi:docname="130219_christoph_05.svg">
  <sodipodi:namedview
     pagecolor="#ffffff"
     bordercolor="#666666"
     borderopacity="1"
     objecttolerance="10"
     gridtolerance="10"
     guidetolerance="10"
     inkscape:pageopacity="0"
     inkscape:pageshadow="2"
     inkscape:window-width="640"
     inkscape:window-height="480"
     id="namedview53"
     showgrid="false"
     inkscape:zoom="0.2350638"
     inkscape:cx="404.25949"
     inkscape:cy="984.57218"
     inkscape:current-layer="__D____01" />
  <defs
     id="defs4">
    <inkscape:perspective
       sodipodi:type="inkscape:persp3d"
       inkscape:vp_x="0 : 744.09448 : 1"
       inkscape:vp_y="0 : 1000 : 0"
       inkscape:vp_z="1052.3622 : 744.09448 : 1"
       inkscape:persp3d-origin="526.18109 : 496.06299 : 1"
       id="perspective55" />
    <inkscape:perspective
       id="perspective2873"
       inkscape:persp3d-origin="0.5 : 0.33333333 : 1"
       inkscape:vp_z="1 : 0.5 : 1"
       inkscape:vp_y="0 : 1000 : 0"
       inkscape:vp_x="0 : 0.5 : 1"
       sodipodi:type="inkscape:persp3d" />
    <inkscape:perspective
       id="perspective2898"
       inkscape:persp3d-origin="0.5 : 0.33333333 : 1"
       inkscape:vp_z="1 : 0.5 : 1"
       inkscape:vp_y="0 : 1000 : 0"
       inkscape:vp_x="0 : 0.5 : 1"
       sodipodi:type="inkscape:persp3d" />
    <inkscape:perspective
       id="perspective2923"
       inkscape:persp3d-origin="0.5 : 0.33333333 : 1"
       inkscape:vp_z="1 : 0.5 : 1"
       inkscape:vp_y="0 : 1000 : 0"
       inkscape:vp_x="0 : 0.5 : 1"
       sodipodi:type="inkscape:persp3d" />
    <inkscape:perspective
       id="perspective2948"
       inkscape:persp3d-origin="0.5 : 0.33333333 : 1"
       inkscape:vp_z="1 : 0.5 : 1"
       inkscape:vp_y="0 : 1000 : 0"
       inkscape:vp_x="0 : 0.5 : 1"
       sodipodi:type="inkscape:persp3d" />
    <inkscape:perspective
       id="perspective2973"
       inkscape:persp3d-origin="0.5 : 0.33333333 : 1"
       inkscape:vp_z="1 : 0.5 : 1"
       inkscape:vp_y="0 : 1000 : 0"
       inkscape:vp_x="0 : 0.5 : 1"
       sodipodi:type="inkscape:persp3d" />
    <inkscape:perspective
       id="perspective2998"
       inkscape:persp3d-origin="0.5 : 0.33333333 : 1"
       inkscape:vp_z="1 : 0.5 : 1"
       inkscape:vp_y="0 : 1000 : 0"
       inkscape:vp_x="0 : 0.5 : 1"
       sodipodi:type="inkscape:persp3d" />
    <inkscape:perspective
       id="perspective3026"
       inkscape:persp3d-origin="0.5 : 0.33333333 : 1"
       inkscape:vp_z="1 : 0.5 : 1"
       inkscape:vp_y="0 : 1000 : 0"
       inkscape:vp_x="0 : 0.5 : 1"
       sodipodi:type="inkscape:persp3d" />
    <inkscape:perspective
       id="perspective3051"
       inkscape:persp3d-origin="0.5 : 0.33333333 : 1"
       inkscape:vp_z="1 : 0.5 : 1"
       inkscape:vp_y="0 : 1000 : 0"
       inkscape:vp_x="0 : 0.5 : 1"
       sodipodi:type="inkscape:persp3d" />
    <inkscape:perspective
       id="perspective3093"
       inkscape:persp3d-origin="0.5 : 0.33333333 : 1"
       inkscape:vp_z="1 : 0.5 : 1"
       inkscape:vp_y="0 : 1000 : 0"
       inkscape:vp_x="0 : 0.5 : 1"
       sodipodi:type="inkscape:persp3d" />
    <inkscape:perspective
       id="perspective3124"
       inkscape:persp3d-origin="0.5 : 0.33333333 : 1"
       inkscape:vp_z="1 : 0.5 : 1"
       inkscape:vp_y="0 : 1000 : 0"
       inkscape:vp_x="0 : 0.5 : 1"
       sodipodi:type="inkscape:persp3d" />
    <inkscape:perspective
       id="perspective3158"
       inkscape:persp3d-origin="0.5 : 0.33333333 : 1"
       inkscape:vp_z="1 : 0.5 : 1"
       inkscape:vp_y="0 : 1000 : 0"
       inkscape:vp_x="0 : 0.5 : 1"
       sodipodi:type="inkscape:persp3d" />
    <inkscape:perspective
       id="perspective3192"
       inkscape:persp3d-origin="0.5 : 0.33333333 : 1"
       inkscape:vp_z="1 : 0.5 : 1"
       inkscape:vp_y="0 : 1000 : 0"
       inkscape:vp_x="0 : 0.5 : 1"
       sodipodi:type="inkscape:persp3d" />
    <inkscape:perspective
       id="perspective3221"
       inkscape:persp3d-origin="0.5 : 0.33333333 : 1"
       inkscape:vp_z="1 : 0.5 : 1"
       inkscape:vp_y="0 : 1000 : 0"
       inkscape:vp_x="0 : 0.5 : 1"
       sodipodi:type="inkscape:persp3d" />
    <inkscape:perspective
       id="perspective3246"
       inkscape:persp3d-origin="0.5 : 0.33333333 : 1"
       inkscape:vp_z="1 : 0.5 : 1"
       inkscape:vp_y="0 : 1000 : 0"
       inkscape:vp_x="0 : 0.5 : 1"
       sodipodi:type="inkscape:persp3d" />
    <inkscape:perspective
       id="perspective3271"
       inkscape:persp3d-origin="0.5 : 0.33333333 : 1"
       inkscape:vp_z="1 : 0.5 : 1"
       inkscape:vp_y="0 : 1000 : 0"
       inkscape:vp_x="0 : 0.5 : 1"
       sodipodi:type="inkscape:persp3d" />
    <inkscape:perspective
       id="perspective3296"
       inkscape:persp3d-origin="0.5 : 0.33333333 : 1"
       inkscape:vp_z="1 : 0.5 : 1"
       inkscape:vp_y="0 : 1000 : 0"
       inkscape:vp_x="0 : 0.5 : 1"
       sodipodi:type="inkscape:persp3d" />
    <inkscape:perspective
       id="perspective3321"
       inkscape:persp3d-origin="0.5 : 0.33333333 : 1"
       inkscape:vp_z="1 : 0.5 : 1"
       inkscape:vp_y="0 : 1000 : 0"
       inkscape:vp_x="0 : 0.5 : 1"
       sodipodi:type="inkscape:persp3d" />
    <inkscape:perspective
       id="perspective3349"
       inkscape:persp3d-origin="0.5 : 0.33333333 : 1"
       inkscape:vp_z="1 : 0.5 : 1"
       inkscape:vp_y="0 : 1000 : 0"
       inkscape:vp_x="0 : 0.5 : 1"
       sodipodi:type="inkscape:persp3d" />
    <inkscape:perspective
       id="perspective3374"
       inkscape:persp3d-origin="0.5 : 0.33333333 : 1"
       inkscape:vp_z="1 : 0.5 : 1"
       inkscape:vp_y="0 : 1000 : 0"
       inkscape:vp_x="0 : 0.5 : 1"
       sodipodi:type="inkscape:persp3d" />
    <inkscape:perspective
       id="perspective3399"
       inkscape:persp3d-origin="0.5 : 0.33333333 : 1"
       inkscape:vp_z="1 : 0.5 : 1"
       inkscape:vp_y="0 : 1000 : 0"
       inkscape:vp_x="0 : 0.5 : 1"
       sodipodi:type="inkscape:persp3d" />
    <inkscape:perspective
       id="perspective3430"
       inkscape:persp3d-origin="0.5 : 0.33333333 : 1"
       inkscape:vp_z="1 : 0.5 : 1"
       inkscape:vp_y="0 : 1000 : 0"
       inkscape:vp_x="0 : 0.5 : 1"
       sodipodi:type="inkscape:persp3d" />
  </defs>
  <metadata
     id="metadata7">
    <rdf:RDF>
      <cc:Work
         rdf:about="">
        <dc:format>image/svg+xml</dc:format>
        <dc:type
           rdf:resource="http://purl.org/dc/dcmitype/StillImage" />
        <dc:title />
      </cc:Work>
    </rdf:RDF>
  </metadata>
  <g
     inkscape:label="B______01"
     inkscape:groupmode="layer"
     id="B______01"
     style="display:inline"
     typus="B______01">
    <path
       id="path2853-5-8"
       d="m 106.96088,397.32855 c 40.02262,-1.55126 51.81227,-31.02535 51.81227,-64.53265 0,-45.29693 -23.26899,-55.84558 -23.26899,-55.84558 16.13315,-13.96138 20.78696,-26.06129 20.78696,-47.15848 0,-45.29691 -21.09724,-60.49937 -61.11986,-60.49937 -12.72037,0 -29.47405,0 -29.47405,0 l 0,228.03608 41.26367,0 m 17.06392,-68.25569 c 0,37.54059 -18.6152,35.05859 -24.82025,35.05859 l 0,-70.11721 c 6.20505,0 24.82025,-2.48199 24.82025,35.05862 m 0,-96.1785 c 0,31.33554 -18.6152,30.40482 -24.82025,30.40482 l 0,-60.80962 c 6.20505,0 24.82025,-0.93072 24.82025,30.4048"
       style="color:#000000;fill:none;stroke:#ff2ad4;stroke-width:0.5"
       sodipodi:insensitive="true" />
    <g
       style="fill:#000000;stroke:none;display:inline"
       id="text2861">
      <path
         d="m 148.33273,167.10928 c 20.45852,0 37.74746,11.81411 43.79857,28.81485 5.76297,16.7126 2.88148,35.73044 -5.18667,55.90081 -4.03408,10.08519 -10.37335,18.72966 -17.86521,26.50966 l 21.32299,24.20448 c 10.94963,12.67852 16.13632,28.23857 16.13632,43.51042 0,14.98371 -5.76299,30.54375 -18.44151,40.05264 -14.11926,10.37334 -29.10301,11.52594 -40.91708,11.81409 -10.94964,0.28815 -27.08598,0.28815 -40.91709,0 -6.05111,0 -11.237796,0 -15.56002,-0.28815 l -9.797049,0 0,0.28815 -0.288148,-0.28815 -14.983722,0 0,-215.82322 0,-14.40743 14.407425,0 c 0,0 42.934154,-0.28815 68.291194,-0.28815 m 0,28.81485 c -19.88223,0 -41.78154,0.28815 -53.883769,0.28815 l 0,100.27568 c 8.644449,-5.47482 18.153359,-10.94965 26.797809,-17.00076 18.44149,-12.10223 33.71338,-25.64523 38.90005,-38.32375 6.33926,-16.1363 6.91556,-29.39116 4.61037,-36.01856 -2.30518,-6.33927 -4.61038,-9.22076 -16.42446,-9.22076 m -1.15259,100.85198 c -3.45778,2.30518 -6.62742,4.61038 -9.79705,6.62741 -16.7126,11.23778 -33.42524,21.03485 -42.934129,28.81485 l 0,36.88301 c 3.457778,0 7.491869,0 12.102239,0 13.54296,0.28815 29.96745,0.28815 39.76449,0 10.66148,-0.28815 17.57707,-0.86445 24.49262,-6.33927 4.03408,-2.88148 6.91557,-8.64446 6.91557,-16.71261 0,-8.3563 -2.88149,-17.57706 -9.22076,-24.49262 l -21.32298,-24.78077"
         id="path3111" />
    </g>
  </g>
  <g
     id="_A_____01"
     inkscape:groupmode="layer"
     inkscape:label="_A_____01"
     style="display:inline"
     typus="_A_____01">
    <path
       id="path2855"
       d="m 194.84124,397.32855 6.20507,-46.53797 32.26632,0 6.20507,46.53797 32.57658,0 -34.4381,-228.03608 -40.95342,0 -34.4381,228.03608 32.57658,0 m 33.81759,-81.90682 -22.95873,0 9.61785,-71.97875 0.93076,-5.89482 1.86152,0 0.93075,5.89482 9.61785,71.97875"
       style="color:#000000;fill:none;stroke:#ff2ad4;stroke-width:0.5"
       sodipodi:insensitive="true" />
    <g
       transform="translate(0,1.484375e-5)"
       style="fill:#000000;stroke:none;display:inline"
       id="text2861-4-2">
      <path
         d="M 195.78125,167.09375 153.6875,397.625 l 130.53125,0 -35.4375,-230.53125 -53,0 z"
         transform="translate(0,-1.484375e-5)"
         id="path3144"
         style="fill:#ffffff"
         sodipodi:nodetypes="ccccc" />
    </g>
    <g
       style="fill:#000000;stroke:none;display:inline"
       id="text2861-4">
      <path
         d="m 195.77043,167.10925 53.01933,0 35.44226,230.5188 -29.10299,0 -2.30519,-14.40742 -67.7149,0 -2.59334,14.40742 -28.81485,0 42.06968,-230.5188 m 23.91633,29.103 c -9.79704,52.73112 -19.59411,105.4624 -29.103,158.19353 l 57.91785,0 C 240.43346,301.67465 232.07714,248.94337 224.00899,196.21225 l -4.32223,0"
         id="path3114" />
    </g>
  </g>
  <g
     inkscape:label="__D____01"
     inkscape:groupmode="layer"
     id="__D____01"
     style="display:inline"
     typus="__D____01">
    <path
       id="path2857"
       d="m 376.97013,283.46564 c 0,-89.35282 -4.65386,-113.86292 -66.70444,-114.17317 l -26.37151,0 0,228.03609 26.37151,0 c 62.05058,-0.31026 66.70444,-24.82035 66.70444,-113.86292 m -59.56861,-80.66583 c 23.57921,0 25.13051,5.89489 24.82025,80.35558 0.31026,74.77094 -1.24104,80.66583 -24.82025,80.66583 l 0,-161.02141"
       style="fill:none;stroke:#ff2ad4;stroke-width:0.5;display:inline"
       sodipodi:insensitive="true" />
    <g
       transform="translate(0,1.484375e-5)"
       style="fill:#000000;stroke:none;display:inline"
       id="text2861-4-7-7">
      <path
         d="m 269.625,167.09375 0,230.53125 28.8125,0 0,-0.28125 c 22.18741,0 52.44,0.007 68,-0.28125 16.1363,-0.57629 29.39005,-7.22042 36.59375,-17.59375 6.91556,-10.37334 7.80519,-22.75167 5.5,-33.125 -3.16963,-14.11926 -5.20338,-32.29281 -17.59375,-82.71875 -12.39038,-50.71409 -20.17537,-71.14777 -31.125,-83.25 0.28815,0 -4.87259,-5.77477 -11.5,-8.65625 -6.91556,-3.16963 -15.87708,-4.625 -28.84375,-4.625 -7.78,0 -14.40384,0.3125 -21.03125,0.3125 l 0,-0.3125 -28.8125,0 z"
         transform="translate(0,-1.484375e-5)"
         id="path3178"
         style="fill:#ffffff" />
    </g>
    <g
       style="fill:#000000;stroke:none;display:inline"
       id="text2861-4-7">
      <path
         d="m 319.48381,167.10925 c 12.96667,0 21.89929,1.44075 28.81485,4.61038 6.62741,2.88148 11.81409,8.64445 11.52594,8.64445 10.94963,12.10223 18.72966,32.56083 31.12004,83.27492 12.39037,50.42594 14.40742,68.57936 17.57705,82.69862 2.30519,10.37333 1.44074,22.76374 -5.47482,33.13708 -7.2037,10.37333 -20.45856,17.00076 -36.59486,17.57705 -15.56,0.28815 -45.81563,0.28815 -68.00304,0.28815 l 0,0.28815 -28.81485,0 0,-230.5188 28.81485,0 0,0.28815 c 6.62741,0 13.25484,-0.28815 21.03484,-0.28815 m 0.28815,28.23856 c -7.78,0.28814 -14.40743,0.28814 -21.32299,0.28814 l 0,173.4654 c 22.18741,0 52.44304,0 67.42675,-0.5763 9.50889,0 12.10224,-2.59334 13.54298,-4.89852 1.72889,-2.59333 2.59333,-6.62742 1.44074,-11.23779 -3.45778,-16.1363 -5.18669,-32.27268 -17.28891,-82.12232 -12.10223,-49.27335 -22.47559,-68.2912 -24.78077,-70.88454 -2.30519,-2.59333 -0.28815,-1.15259 -2.01704,-2.01703 -1.72889,-0.5763 -6.62743,-2.01704 -17.00076,-2.01704"
         id="path3148" />
    </g>
  </g>
  <g
     id="___N___01"
     inkscape:groupmode="layer"
     inkscape:label="___N___01"
     style="display:inline"
     typus="___N___01">
    <path
       id="path2859"
       d="m 460.1385,397.32855 c 0,0 29.78431,0 29.78431,0 0,0 0,-228.03608 0,-228.03608 l -30.71506,0 0,118.82697 0,10.5486 -1.86152,0 -2.79228,-10.5486 c 0,0 -32.57658,-118.82697 -32.57658,-118.82697 0,0 -29.78431,0 -29.78431,0 0,0 0,228.03608 0,228.03608 l 30.71506,0 0,-118.82696 0,-10.54861 1.86152,0 2.79228,10.54861 32.57658,118.82696"
       style="color:#000000;fill:none;stroke:#ff2ad4;stroke-width:0.5;display:inline"
       sodipodi:insensitive="true" />
    <g
       transform="translate(0,1.484375e-5)"
       style="fill:#ffffff;stroke:none;display:inline"
       id="text2861-4-7-0-8">
      <path
         d="m 375.63412,167.10925 129.66682,0 0,230.5188 -129.66682,0"
         id="path3182-3"
         style="fill:#ffffff"
         sodipodi:nodetypes="cccc" />
    </g>
    <g
       style="fill:#000000;stroke:none;display:inline"
       id="text2861-4-7-0">
      <path
         d="m 375.63412,167.10925 28.81485,0 0,12.96669 c 12.10222,25.35704 28.52672,32.84893 47.5445,40.05264 8.06815,3.16963 16.13633,6.05112 24.49262,10.37334 l 0,-63.39267 28.81485,0 0,230.5188 -28.81485,0 0,-127.93793 c -1.72889,-5.76297 -4.32223,-8.35631 -9.79705,-11.52594 -5.47481,-3.74593 -14.69558,-6.91557 -25.35706,-11.23779 -11.23778,-4.32223 -24.78079,-10.66151 -36.88301,-21.03484 l 0,171.7365 -28.81485,0 0,-230.5188"
         id="path3182" />
    </g>
  </g>
  <g
     inkscape:label="____E__01"
     inkscape:groupmode="layer"
     id="____E__01"
     style="display:inline"
     typus="____E__01">
    <path
       id="path2861"
       d="m 506.055,397.32855 76.63253,0 0,-34.43809 -43.12519,0 0,-62.67114 31.02531,0 0,-36.60988 -31.02531,0 0,-59.87886 43.12519,0 0,-34.43811 -76.63253,0 0,228.03609"
       style="color:#000000;fill:none;stroke:#ff2ad4;stroke-width:0.5;display:inline"
       sodipodi:insensitive="true" />
    <g
       style="fill:#000000;stroke:none;display:inline"
       id="text2861-4-7-0-5">
      <path
         d="m 481.63412,167.10925 28.81485,0 100.85197,0 0,28.81485 -100.85197,0 0,43.79857 c 3.16963,-0.28814 6.62742,-0.57629 10.37334,-0.57629 0.5763,0 1.1526,0 1.7289,0 5.47481,0 10.94964,0.86445 16.42446,2.88148 10.37334,3.45778 15.84817,8.35631 20.17039,10.6615 4.32223,2.30518 9.22077,4.03408 21.32299,4.03408 l 0,28.81485 c -15.84815,0 -26.79781,-3.16964 -34.57782,-7.20372 -8.06815,-4.32222 -11.52594,-7.49186 -16.13631,-9.22075 -5.18667,-1.72889 -12.10225,-1.44074 -19.30595,0 l 0,99.69938 83.07196,0 0,28.81485 -83.07196,0 -28.81485,0 0,-28.81485 0,-172.8891 0,-28.81485"
         id="path3016"
         sodipodi:nodetypes="ccccccsscsccccccccccccc" />
    </g>
  </g>
  <g
     id="_____S_01"
     inkscape:groupmode="layer"
     inkscape:label="_____S_01"
     style="display:inline"
     typus="_____S_01">
    <path
       id="path2863"
       d="m 595.60241,220.17398 c 0,24.50997 14.89217,47.77903 30.71506,71.048 12.72036,19.23568 26.99202,37.54064 26.99202,52.74304 0,14.27162 -3.72304,25.1305 -13.65114,25.1305 -13.96137,0 -15.82291,-19.85623 -15.82291,-38.78164 l -32.88682,3.10252 c 0,33.81757 5.58459,66.39416 48.70973,66.39416 36.60984,0 46.53798,-26.99203 46.53798,-57.39681 0,-24.50997 -15.82293,-47.1585 -31.33557,-70.42747 -13.03062,-18.92544 -26.37152,-36.29965 -26.37152,-51.8123 0,-13.03062 2.79229,-22.33822 11.47937,-22.64848 11.1691,0 13.34088,17.68444 13.34088,32.88684 l 32.88684,-3.10254 c 0,-25.44073 -6.51536,-61.4301 -46.84823,-60.49933 -31.64578,0.6205 -43.74569,28.54328 -43.74569,53.36351"
       style="color:#000000;fill:none;stroke:#ff2ad4;stroke-width:0.5;display:inline"
       sodipodi:insensitive="true" />
    <g
       style="fill:#000000;stroke:none;display:inline"
       id="text2861-4-7-0-5-9">
      <path
         d="m 723.06274,199.39986 c -10.08519,1.15259 -23.91634,5.76298 -34.00153,18.72965 -27.80294,50.99472 -11.44181,80.48367 -29.39114,134.54983 -9.50889,22.18742 -24.78079,34.86598 -39.47635,40.34079 -10.08518,3.74593 -19.88225,4.32223 -26.79781,4.61038 l 0,-29.103 c 5.47482,0 11.2378,-0.5763 16.71262,-2.59333 8.35629,-2.88149 16.13632,-8.35633 23.05187,-24.49263 15.46931,-57.08335 0.76794,-88.124 32.84893,-140.60095 14.35053,-23.47409 40.62896,-29.103 57.05341,-30.54374"
         id="path3069"
         sodipodi:nodetypes="cccccccccc" />
    </g>
  </g>
  <g
     inkscape:label="______S01"
     inkscape:groupmode="layer"
     id="______S01"
     style="display:inline"
     typus="______S01">
    <path
       id="path2865"
       d="m 702.25191,220.17398 c 0,24.50997 14.89218,47.77903 30.71507,71.048 12.72037,19.23568 26.99202,37.54064 26.99202,52.74304 0,14.27162 -3.72305,25.1305 -13.65114,25.1305 -13.96137,0 -15.8229,-19.85623 -15.8229,-38.78164 l -32.88684,3.10252 c 0,33.81757 5.5846,66.39416 48.70974,66.39416 36.60984,0 46.53798,-26.99203 46.53798,-57.39681 0,-24.50997 -15.82293,-47.1585 -31.33558,-70.42747 -13.03061,-18.92544 -26.37151,-36.29965 -26.37151,-51.8123 0,-13.03062 2.79228,-22.33822 11.47937,-22.64848 11.1691,0 13.34088,17.68444 13.34088,32.88684 l 32.88684,-3.10254 c 0,-25.44073 -6.51536,-61.4301 -46.84822,-60.49933 -31.6458,0.6205 -43.74571,28.54328 -43.74571,53.36351"
       style="color:#000000;fill:none;stroke:#ff2ad4;stroke-width:0.5;display:inline"
       sodipodi:insensitive="true" />
    <g
       transform="translate(76,4.84375e-6)"
       style="fill:#000000;stroke:none;display:inline"
       id="text2861-4-7-0-5-9-6">
      <path
         d="m 723.06274,199.39986 c -10.08519,1.15259 -23.91634,5.76298 -34.00153,18.72965 -27.80294,50.99472 -11.44181,80.48367 -29.39114,134.54983 -9.50889,22.18742 -24.78079,34.86598 -39.47635,40.34079 -10.08518,3.74593 -19.88225,4.32223 -26.79781,4.61038 l 0,-29.103 c 5.47482,0 11.2378,-0.5763 16.71262,-2.59333 8.35629,-2.88149 16.13632,-8.35633 23.05187,-24.49263 15.46931,-57.08335 0.76794,-88.124 32.84893,-140.60095 14.35053,-23.47409 40.62896,-29.103 57.05341,-30.54374"
         id="path3069-6"
         sodipodi:nodetypes="cccccccccc" />
    </g>
  </g>
  <g
     id="__N_____01"
     inkscape:groupmode="layer"
     inkscape:label="__N_____01"
     style="display:inline"
     typus="__N_____01">
    <path
       d="m 343.74337,676.5288 c 0,0 29.78431,0 29.78431,0 0,0 0,-228.03607 0,-228.03607 l -30.71506,0 0,118.82696 0,10.54861 -1.86152,0 -2.79229,-10.54861 c 0,0 -32.57658,-118.82696 -32.57658,-118.82696 0,0 -29.78429,0 -29.78429,0 0,0 0,228.03607 0,228.03607 l 30.71506,0 0,-118.82695 0,-10.54861 1.86152,0 2.79227,10.54861 32.57658,118.82695"
       style="color:#000000;fill:none;stroke:#ff2ad4;stroke-width:0.5"
       id="path4487"
       sodipodi:insensitive="true" />
    <g
       style="fill:#000000;stroke:none;display:inline"
       id="text3209-4-4"
       transform="translate(10,0)">
      <path
         d="m 264.48368,448.13149 28.65891,0 0,12.89652 c 12.03674,25.21982 28.37235,32.67117 47.28722,39.83589 8.02449,3.15248 16.049,6.01838 24.36008,10.31721 l 0,-63.04962 28.65891,0 0,229.27134 -28.65891,0 0,-127.24559 c -1.71954,-5.73178 -4.29885,-8.31109 -9.74404,-11.46357 -5.44518,-3.72565 -14.61605,-6.87814 -25.21984,-11.17698 -11.17697,-4.29883 -24.64668,-10.6038 -36.68342,-20.921 l 0,170.80714 -28.65891,0 0,-229.27134"
         id="path3454" />
    </g>
  </g>
  <g
     id="C_______01"
     inkscape:groupmode="layer"
     inkscape:label="C_______01"
     style="display:inline"
     typus="C_______01">
    <path
       d="m 121.54277,598.34501 0,31.33556 c 0,0 1.24101,16.75368 -12.72038,16.75368 -11.7896,0 -11.78962,-16.75368 -11.78962,-16.75368 l 0,-134.33961 c 0,0 2e-5,-16.75367 11.78962,-16.75367 13.96139,0 12.72038,16.75367 12.72038,16.75367 l 0,31.33557 c 0,0 31.33557,0 31.33557,0 l 0,-31.33557 c 0,0 0.31021,-49.33025 -44.67646,-49.33025 -44.986654,0 -44.676446,49.33025 -44.676446,49.33025 l 0,134.33961 c 0,0 -0.310208,49.33026 44.676446,49.33026 44.98667,0 44.67646,-49.33026 44.67646,-49.33026 l 0,-31.33556 -31.33557,0"
       id="path3257"
       style="color:#000000;fill:none;stroke:#ff2ad4;stroke-width:0.5"
       sodipodi:insensitive="true" />
    <g
       style="fill:#000000;stroke:none;display:inline"
       id="text3209">
      <path
         d="m 114.19161,445.80971 0,0 c 26.06136,0 47.40955,10.53547 60.44022,27.44762 2.77249,3.88148 5.26773,7.76297 7.20847,11.9217 l -24.67514,14.13968 c -1.38624,-3.32698 -3.32698,-6.09947 -5.26772,-8.59471 -7.76296,-10.25819 -18.85293,-16.63492 -37.70583,-16.63492 -18.852891,0 -29.942866,6.37673 -37.705822,16.63492 -7.762957,9.98095 -11.921694,25.5069 -10.8127,43.8053 l 0,0.27725 0,0 c 0.277248,14.41692 3.881491,46.30056 12.753441,72.63916 4.435975,13.30793 10.258209,24.9524 16.634923,32.71535 6.099468,7.48571 11.921698,10.8127 19.130158,10.8127 7.48571,0 13.0307,-3.32699 19.40741,-10.8127 0.27725,-0.55449 0.5545,-0.83174 0.83175,-1.38624 l 24.67514,14.97143 c -1.38625,1.38624 -2.49524,3.04974 -3.60424,4.43598 -9.98094,11.92168 -24.12065,21.0709 -41.03281,21.34815 l -0.27725,0 0,0 C 97.279459,679.25313 82.862499,670.10391 73.158803,658.18223 63.177859,646.53779 56.523875,631.84359 51.256154,616.59492 41.27521,586.09759 37.670967,553.65944 37.11647,535.91554 c 0,0 0,-0.27724 0,-0.27724 l 0,0 c -1.108994,-23.28887 3.881495,-45.19156 16.634923,-62.38097 13.030677,-16.91215 34.656115,-27.44762 60.440217,-27.44762"
         id="path3417" />
    </g>
  </g>
  <g
     style="display:inline"
     inkscape:label="_O______01"
     inkscape:groupmode="layer"
     id="_O______01"
     typus="_O______01">
    <path
       id="path4467"
       style="color:#000000;fill:none;stroke:#ff2ad4;stroke-width:0.5"
       d="m 258.42531,629.68057 0,-134.33961 c 0,0 0.31021,-49.33025 -44.67646,-49.33025 -44.98665,0 -44.67645,49.33025 -44.67645,49.33025 l 0,134.33961 c 0,0 -0.3102,49.33026 44.67645,49.33026 44.98667,0 44.67646,-49.33026 44.67646,-49.33026 m -33.50735,-134.33961 0,134.33961 c 0,0 0.6205,16.75368 -11.16911,16.75368 -11.78961,0 -11.16911,-16.75368 -11.16911,-16.75368 l 0,-134.33961 c 0,0 -0.6205,-16.75367 11.16911,-16.75367 11.78961,0 11.16911,16.75367 11.16911,16.75367"
       sodipodi:insensitive="true" />
    <g
       transform="translate(1.8296529e-7,1.484375e-5)"
       style="fill:#ffffff;stroke:none;display:inline"
       id="text3209-4-9">
      <path
         d="m 222.1875,445.8125 c -25.7841,0 -47.40282,10.52935 -60.15625,27.71875 C 149.00057,490.44341 144.016,512.61338 145.125,535.625 l 0,0.5625 c 0.55449,17.46665 4.14406,49.90892 14.125,80.40625 5.26772,15.24866 11.92531,29.95331 21.90625,41.875 9.7037,11.64443 24.1191,20.78525 41.03125,21.0625 l 0.28125,0 c 16.91215,-0.27725 31.05031,-9.41807 41.03125,-21.0625 9.7037,-11.92169 16.35728,-26.62634 21.625,-41.875 10.25819,-30.49733 13.87901,-62.9396 14.15625,-80.40625 l 0,-0.5625 c 1.109,-23.01162 -3.62557,-45.18159 -16.65625,-62.09375 -13.03068,-17.1894 -34.37615,-27.71875 -60.4375,-27.71875 z"
         transform="translate(-1.8296529e-7,-1.484375e-5)"
         id="path3450"
         style="fill:#ffffff" />
    </g>
    <g
       style="fill:#000000;stroke:none;display:inline"
       id="text3209-4">
      <path
         d="m 222.19162,445.80965 c 26.06135,0 47.40954,10.53547 60.44022,27.72487 13.03068,16.91216 17.74392,39.09209 16.63492,62.10371 l 0,0 c 0,0.27725 0,0.27725 0,0.5545 -0.27724,17.46665 -3.88149,49.9048 -14.13968,80.40213 -5.26772,15.24866 -11.9217,29.94287 -21.6254,41.86456 -9.98094,11.64443 -24.12066,20.79365 -41.03281,21.0709 l -0.27725,0 0,0 c -16.91215,-0.27725 -31.32911,-9.42647 -41.03281,-21.0709 -9.98094,-11.92169 -16.63493,-26.6159 -21.90265,-41.86456 -9.98094,-30.49733 -13.58519,-62.93548 -14.13968,-80.40213 0,-0.27725 0,-0.27725 0,-0.5545 l 0,0 c -1.109,-23.01162 3.88149,-45.19155 16.91217,-62.10371 12.75343,-17.1894 34.37887,-27.72487 60.16297,-27.72487 m 0,28.55662 c -18.85289,0 -29.94287,6.09948 -37.70582,16.35767 -7.76296,10.25819 -11.9217,25.5069 -10.8127,43.8053 l 0,0.27725 0,0.27725 c 0.27724,14.13967 3.88149,46.02331 12.75344,72.36191 4.43597,13.30793 10.25821,25.22964 16.63492,32.71535 6.09947,7.48571 11.9217,10.8127 19.13016,10.8127 7.48571,0 13.0307,-3.32699 19.40741,-10.8127 6.37672,-7.48571 12.19895,-19.40742 16.63492,-32.71535 8.87195,-26.3386 12.19895,-58.22224 12.75345,-72.36191 l 0,-0.27725 0,-0.27725 c 0.83174,-18.2984 -3.327,-33.54711 -11.08995,-43.8053 -7.76296,-10.25819 -18.85293,-16.35767 -37.70583,-16.35767"
         id="path3420" />
    </g>
  </g>
  <g
     style="display:inline"
     inkscape:label="___F____01"
     inkscape:groupmode="layer"
     id="___F____01"
     typus="___F____01">
    <path
       id="path4507"
       style="color:#000000;fill:none;stroke:#ff2ad4;stroke-width:0.5"
       d="m 471.10343,448.49273 c -76.32219,0 -79.73505,0 -79.73505,0 l 0,228.03607 33.50733,0 0,-99.281 31.02532,0 0,-34.43811 -31.02532,0 0,-59.87886 46.22772,0 0,-34.4381"
       sodipodi:insensitive="true" />
    <g
       style="fill:#000000;stroke:none;display:inline"
       id="text3209-4-4-2">
      <path
         d="m 398.86336,448.13149 28.65892,0 100.30621,0 0,28.65892 -100.30621,0 0,44.42132 c 3.43906,-0.57317 6.87814,-0.85976 10.6038,-0.85976 0.57317,0 1.14635,0 1.71953,0 5.1586,0.28658 10.8904,1.14635 16.33558,3.15248 10.3172,3.43906 15.76241,8.31108 20.06125,10.6038 4.29883,2.29271 9.17086,4.01224 21.2076,4.01224 l 0,28.65892 c -15.76239,0 -26.65281,-3.15248 -34.39071,-7.16473 -8.02448,-4.29883 -11.46357,-7.45132 -16.04899,-9.17085 -5.1586,-1.71953 -12.03675,-1.71953 -19.48806,0 l 0,126.959 -28.65892,0 0,-200.61242 0,-28.65892"
         id="path3457" />
    </g>
  </g>
  <g
     id="____L___01"
     inkscape:groupmode="layer"
     inkscape:label="____L___01"
     style="display:inline"
     typus="____L___01">
    <path
       d="m 484.68672,676.5288 77.87355,0 0,-31.02531 -44.3662,0 0,-197.01076 -33.50735,0 0,228.03607"
       style="color:#000000;fill:none;stroke:#ff2ad4;stroke-width:0.5"
       id="path4527"
       sodipodi:insensitive="true" />
    <g
       style="fill:#000000;stroke:none;display:inline"
       id="text3209-4-4-2-7"
       transform="matrix(1.0336899,0,0,1.0336899,1.2917233,-18.715807)">
      <path
         d="m 486.48367,451.63187 27.72488,0 0,194.90585 79.86879,0 0,27.72487 -106.76192,0 0,-0.83174 -0.83175,0"
         id="path3339"
         sodipodi:nodetypes="cccccccc" />
    </g>
  </g>
  <g
     style="display:inline"
     inkscape:label="_____I__01"
     inkscape:groupmode="layer"
     id="_____I__01"
     typus="_____I__01">
    <path
       id="path4547"
       style="color:#000000;fill:none;stroke:#ff2ad4;stroke-width:0.5"
       d="m 576.18717,676.5288 33.50734,0 0,-228.03607 -33.50734,0 0,228.03607"
       sodipodi:insensitive="true" />
    <g
       style="fill:#000000;stroke:none;display:inline"
       id="text3209-4-4-2-6"
       transform="translate(0,0.57933607)">
      <path
         d="m 619.41757,448.13149 0,229.60323 -28.08573,-0.0453 0,-229.27134 28.08573,-0.28659"
         id="path3460"
         sodipodi:nodetypes="ccccc" />
    </g>
  </g>
  <g
     id="______C_01"
     inkscape:groupmode="layer"
     inkscape:label="______C_01"
     style="display:inline"
     typus="______C_01">
    <path
       d="m 688.49669,598.34501 0,31.33556 c 0,0 1.241,16.75368 -12.72039,16.75368 -11.78961,0 -11.78962,-16.75368 -11.78962,-16.75368 l 0,-134.33961 c 0,0 10e-6,-16.75367 11.78962,-16.75367 13.96139,0 12.72039,16.75367 12.72039,16.75367 l 0,31.33557 c 0,0 31.33556,0 31.33556,0 l 0,-31.33557 c 0,0 0.31021,-49.33025 -44.67645,-49.33025 -44.98666,0 -44.67645,49.33025 -44.67645,49.33025 l 0,134.33961 c 0,0 -0.31021,49.33026 44.67645,49.33026 44.98666,0 44.67645,-49.33026 44.67645,-49.33026 l 0,-31.33556 -31.33556,0"
       style="color:#000000;fill:none;stroke:#ff2ad4;stroke-width:0.5"
       id="path4567"
       sodipodi:insensitive="true" />
    <g
       style="fill:#000000;stroke:none;display:inline"
       id="text3209-4-4-2-6-0">
      <path
         d="m 682.19162,445.80965 0,0 c 26.06135,0 47.40954,10.53547 60.44022,27.44762 2.77249,3.88148 5.26773,7.76297 7.20847,11.9217 l -24.67514,14.13968 c -1.38624,-3.32698 -3.32698,-6.09947 -5.26772,-8.59471 -7.76296,-10.25819 -18.85293,-16.63492 -37.70583,-16.63492 -18.85289,0 -29.94287,6.37673 -37.70582,16.63492 -7.76296,9.98095 -11.9217,25.5069 -10.8127,43.8053 l 0,0.27725 0,0 c 0.27724,14.41692 3.88149,46.30056 12.75344,72.63916 4.43597,13.30793 10.25821,24.95239 16.63492,32.71535 6.09947,7.48571 11.9217,10.8127 19.13016,10.8127 7.48571,0 13.0307,-3.32699 19.40741,-10.8127 0.27725,-0.5545 0.5545,-0.83175 0.83175,-1.38624 l 24.67513,14.97143 c -1.38624,1.38624 -2.49524,3.04974 -3.60423,4.43598 -9.98094,11.92168 -24.12066,21.0709 -41.03281,21.34815 l -0.27725,0 0,0 c -16.91215,-0.27725 -31.32911,-9.42647 -41.03281,-21.34815 -9.98094,-11.64444 -16.63493,-26.33865 -21.90265,-41.58731 -9.98094,-30.49733 -13.58519,-62.93548 -14.13968,-80.67938 0,0 0,-0.27725 0,-0.27725 l 0,0 c -1.109,-23.28886 3.88149,-45.19155 16.63492,-62.38096 13.03068,-16.91215 34.65612,-27.44762 60.44022,-27.44762"
         id="path3463" />
    </g>
  </g>
  <g
     style="display:inline"
     inkscape:label="_______T01"
     inkscape:groupmode="layer"
     id="_______T01"
     typus="_______T01">
    <path
       id="path4587"
       style="color:#000000;fill:none;stroke:#ff2ad4;stroke-width:0.5"
       d="m 759.76281,482.93084 0,193.59796 33.50734,0 0,-193.59796 31.64582,0 0,-34.43811 -96.79898,0 0,34.43811 31.64582,0"
       sodipodi:insensitive="true" />
    <g
       style="fill:#000000;stroke:none;display:inline"
       id="text3209-4-4-2-6-0-6">
      <path
         d="m 872.30209,447.8449 0,28.94551 -57.89101,0 0.28659,200.61242 -28.08574,0 -0.28659,-200.32583 -57.89101,0 0,-28.94551 143.86776,-0.28659"
         id="path3466" />
    </g>
  </g>
</svg>
